<svg focusable="false" width="24" height="24" viewBox="0 0 24 24" fill="none" xmlns="http://www.w3.org/2000/svg" class="hnf-svg-icon hnf-svg-bag-default hnf-btn__icon">
    <path fill-rule="evenodd" clip-rule="evenodd" d="M10.9994 4h-.5621l-.2922.4802-3.357 5.517h-5.069l.3107 1.2425 1.6212 6.4851c.334 1.3355 1.5339 2.2724 2.9105 2.2724h10.8769c1.3766 0 2.5765-.9369 2.9104-2.2724l1.6213-6.4851.3106-1.2425h-5.0695l-3.3574-5.517L13.5618 4h-2.5624zm3.8707 5.9972L12.4376 6h-.8761L9.1292 9.9972h5.7409zm-9.2787 7.2425-1.3106-5.2425h15.4384l-1.3106 5.2425a1 1 0 0 1-.9701.7575H6.5615a1 1 0 0 1-.97-.7575z"></path>
</svg>