<svg focusable="false" width="24" height="24" viewBox="0 0 24 24" fill="none" xmlns="http://www.w3.org/2000/svg" class="hnf-svg-icon hnf-svg-icon--social">
    <path d="M21 12c0-4.9705-4.0295-9-9-9s-9 4.0295-9 9c0 4.2206 2.906 7.7623 6.826 8.735v-5.9846H7.9702V12H9.826v-1.1851c0-3.0633 1.3863-4.4831 4.3938-4.4831.5702 0 1.5541.112 1.9566.2236v2.493c-.2124-.0224-.5814-.0335-1.0397-.0335-1.4757 0-2.0459.559-2.0459 2.0124V12h2.9398l-.5051 2.7504h-2.4347v6.1837c4.4564-.5382 7.9096-4.3326 7.9096-8.9341H21z"></path>
   </svg>
   