<svg focusable="false" width="24" height="24" viewBox="0 0 24 24" fill="none" xmlns="http://www.w3.org/2000/svg" class="hnf-svg-icon hnf-svg-icon--social">
    <path d="M12 7.3795c.8036 0 1.567.241 2.2902.6428.7232.4018 1.2857.9643 1.6875 1.6875.4018.7232.6428 1.4866.6428 2.2902 0 .8438-.241 1.6071-.6428 2.3304-.4018.7232-.9643 1.2857-1.6875 1.6875-.7232.4017-1.4866.6026-2.2902.6026-.8438 0-1.6071-.2009-2.3304-.6026-.7232-.4018-1.2857-.9643-1.6875-1.6875-.4017-.7233-.6026-1.4866-.6026-2.3304 0-.8036.2009-1.567.6026-2.2902.4018-.7232.9643-1.2857 1.6875-1.6875.7233-.4018 1.4866-.6428 2.3304-.6428zm0 7.6339c.8036 0 1.5268-.2813 2.1295-.8839.5625-.5625.8839-1.2857.8839-2.1295 0-.8036-.3214-1.5268-.8839-2.1295-.6027-.5625-1.3259-.8839-2.1295-.8839-.8438 0-1.567.3214-2.1295.884-.6026.6026-.8839 1.3258-.8839 2.1294 0 .8438.2813 1.567.884 2.1295.5624.6026 1.2856.8839 2.1294.8839zm5.9062-7.8348c0-.2813-.1205-.5224-.3214-.7634-.241-.201-.4821-.3214-.7634-.3214-.3214 0-.5625.1205-.7634.3214-.241.241-.3214.4821-.3214.7634 0 .3214.0804.5625.3214.7634.2009.241.442.3214.7634.3214.2813 0 .5224-.0804.7232-.3214.2009-.201.3215-.442.3616-.7634zm3.0536 1.0848c0 .7634.0402 2.0089.0402 3.7366 0 1.7679-.0402 3.0134-.0804 3.7768-.0401.7634-.1607 1.4062-.3214 1.9687-.2411.6831-.6428 1.2857-1.125 1.7679-.4821.4821-1.0848.8437-1.7277 1.0848-.5625.2009-1.2455.3214-2.0089.3616C14.9732 21 13.7277 21 12 21c-1.7679 0-3.0134 0-3.7768-.0402-.7634-.0402-1.4062-.1607-1.9687-.4018-.683-.2009-1.2858-.5625-1.7679-1.0446-.4821-.4822-.8437-1.0848-1.0848-1.7679-.201-.5625-.3214-1.2053-.3616-1.9687C3 15.0134 3 13.7679 3 12c0-1.7277 0-2.9732.0402-3.7366.0402-.7634.1607-1.4464.3616-2.009.241-.6428.6027-1.2455 1.0848-1.7276.4821-.4822 1.0848-.884 1.7679-1.125.5625-.1607 1.2053-.2813 1.9687-.3214C8.9866 3.0402 10.2321 3 12 3c1.7277 0 2.9732.0402 3.7366.0804.7634.0401 1.4464.1607 2.0089.3214.6429.241 1.2456.6428 1.7277 1.125.4822.4821.8839 1.0848 1.125 1.7277.1607.5625.2813 1.2455.3616 2.0089zm-1.9286 9.0402c.1608-.442.2411-1.1652.3215-2.1697 0-.5625.0402-1.4062.0402-2.491v-1.2858c0-1.0848-.0402-1.9285-.0402-2.491-.0804-1.0045-.1607-1.7277-.3215-2.1697-.3214-.8035-.9241-1.4062-1.7276-1.7276-.442-.1608-1.1652-.2411-2.1697-.3215-.6027 0-1.4464-.0402-2.491-.0402h-1.2858c-1.0848 0-1.9285.0402-2.491.0402-1.0045.0804-1.7277.1607-2.1697.3214-.8437.3215-1.4062.9242-1.7276 1.7277-.1608.442-.2813 1.1652-.3215 2.1697-.0402.6027-.0402 1.4464-.0402 2.491v1.2858c0 1.0848 0 1.9285.0402 2.491.0402 1.0045.1607 1.7277.3214 2.1697.3215.8437.9242 1.4062 1.7277 1.7276.442.1608 1.1652.2813 2.1697.3215.5625.0402 1.4062.0402 2.491.0402h1.2858c1.0848 0 1.9285 0 2.491-.0402 1.0045-.0402 1.7277-.1607 2.1697-.3215.8035-.3214 1.4062-.9241 1.7276-1.7276z"></path>
   </svg>