<svg width="34" height="24" viewBox="0 0 34 24" fill="none" xmlns="http://www.w3.org/2000/svg">
  <path fill="#B2FCE4" d="M0 0h34v24H0z"/>
  <path d="M23.69 7.837l-2.162-1.281-2.161-1.281c-1.441-.8-3.283.24-3.283 1.921v.32c0 .16.08.32.24.4l1.041.561c.32.16.64-.08.64-.4v-.64c0-.32.32-.56.641-.4l2.002 1.12 1.921 1.201c.32.16.32.56 0 .72L20.567 11.2l-2.001 1.281c-.32.16-.64-.08-.64-.4v-.32c0-1.681-1.842-2.722-3.283-1.922l-2.162 1.281-2.161 1.28c-1.441.8-1.441 2.963 0 3.763l2.162 1.281 2.161 1.281c1.441.8 3.283-.24 3.283-1.921v-.32a.44.44 0 00-.24-.4l-1.041-.561c-.32-.16-.64.08-.64.4v.64c0 .32-.321.56-.641.4l-2.002-1.12-2.001-1.201c-.32-.16-.32-.56 0-.72l2.001-1.121 2.002-1.121c.32-.16.64.08.64.4v.32c0 1.682 1.841 2.722 3.283 1.922l2.161-1.281 2.162-1.281c1.521-.96 1.521-3.042.08-3.923z" fill="#000"/>
</svg>
