<svg width="34" height="24" viewBox="0 0 34 24" fill="none" xmlns="http://www.w3.org/2000/svg">
  <path fill="#fff" d="M0 0h34v24H0z"/>
  <path d="M28.54 3H5.171l-.243.004a3.53 3.53 0 00-.529.047 1.785 1.785 0 00-.502.165 1.687 1.687 0 00-.74.74c-.08.16-.133.325-.165.502a3.508 3.508 0 00-.046.529l-.004.243v13.54c0 .08.002.162.004.242.004.177.015.354.046.529.032.177.084.342.166.503a1.682 1.682 0 00.739.739c.16.082.325.134.502.166.175.03.353.041.53.046a14.033 14.033 0 00.53.004h23.369l.244-.004c.176-.005.354-.015.529-.046.176-.032.341-.084.502-.166a1.68 1.68 0 00.739-.74c.082-.16.134-.325.165-.502.032-.175.042-.352.047-.529l.004-.242V5.23c0-.081-.002-.162-.004-.243a3.498 3.498 0 00-.047-.529A1.691 1.691 0 0029.6 3.051a3.539 3.539 0 00-.528-.047 12.145 12.145 0 00-.244-.003L28.54 3z" fill="#000"/>
  <path d="M28.54 3.598h.284l.231.004c.135.004.292.011.439.038.127.023.234.058.337.11a1.085 1.085 0 01.476.477c.052.101.087.208.11.336.026.145.033.303.037.439a33.57 33.57 0 01.004.515v13.249c0 .077-.002.153-.004.23a2.99 2.99 0 01-.038.44 1.163 1.163 0 01-.109.335 1.086 1.086 0 01-.477.477 1.174 1.174 0 01-.335.11 3.26 3.26 0 01-.437.037l-.234.003H5.174c-.078 0-.155-.002-.23-.003a3.056 3.056 0 01-.438-.038 1.178 1.178 0 01-.338-.11 1.076 1.076 0 01-.476-.476 1.178 1.178 0 01-.11-.337 2.969 2.969 0 01-.037-.438 11.227 11.227 0 01-.003-.23V5.232c0-.077.001-.154.003-.23a2.97 2.97 0 01.038-.44c.023-.127.057-.234.11-.336a1.082 1.082 0 01.476-.477c.102-.051.21-.086.336-.11a3.11 3.11 0 01.44-.037c.076-.002.153-.003.23-.003H28.54z" fill="#fff"/>
  <path d="M10.617 9.053c.24-.301.404-.706.361-1.119-.352.018-.782.233-1.031.534-.224.258-.422.68-.37 1.075.395.034.79-.198 1.04-.49zm.357.567c-.575-.034-1.063.326-1.338.326-.274 0-.694-.309-1.149-.3a1.694 1.694 0 00-1.44.875c-.617 1.064-.163 2.642.437 3.508.292.43.643.901 1.106.884.438-.017.61-.283 1.14-.283.532 0 .686.283 1.15.275.48-.009.78-.43 1.071-.858.335-.489.472-.96.48-.987-.008-.008-.925-.36-.934-1.415-.009-.884.72-1.304.754-1.33-.411-.609-1.054-.678-1.277-.695zm5.002-1.195c1.249 0 2.118.861 2.118 2.114 0 1.258-.887 2.123-2.15 2.123h-1.382v2.199h-.998V8.425h2.412zm-1.414 3.399h1.147c.87 0 1.364-.469 1.364-1.28 0-.812-.495-1.276-1.36-1.276h-1.15v2.556zm3.793 1.704c0-.821.63-1.325 1.744-1.387l1.285-.076v-.361c0-.522-.353-.834-.941-.834-.558 0-.906.267-.99.687h-.91c.053-.848.776-1.472 1.935-1.472 1.137 0 1.864.602 1.864 1.543v3.233h-.923v-.772h-.022c-.272.522-.865.852-1.48.852-.92 0-1.562-.57-1.562-1.413zm3.029-.424v-.37l-1.156.071c-.575.04-.9.295-.9.696 0 .41.338.678.856.678.673 0 1.2-.464 1.2-1.075zm1.83 3.483v-.78c.071.018.232.018.312.018.446 0 .687-.188.834-.67 0-.008.085-.285.085-.29L22.75 10.17h1.043l1.187 3.817h.018l1.186-3.817h1.017l-1.758 4.937c-.4 1.137-.865 1.503-1.837 1.503a3.71 3.71 0 01-.392-.023z" fill="#000"/>
</svg>
