<svg width="34" height="24" viewBox="0 0 34 24" fill="none" xmlns="http://www.w3.org/2000/svg">
  <path fill="#fff" d="M0 0h34v24H0z"/>
  <path fill-rule="evenodd" clip-rule="evenodd" d="M11.245 3A3.74 3.74 0 0114 4.204 3.745 3.745 0 0116.756 3c2.091 0 3.424 2.164 2.588 4H24a3 3 0 013 3v8a3 3 0 01-3 3H10a3 3 0 01-3-3v-8a3 3 0 011.788-2.745C7.698 5.371 9.056 3 11.245 3zm-.279 4H13v-.245C13 5.786 12.214 5 11.245 5a.837.837 0 00-.718 1.268l.44.732zM15 7h2.034l.44-.732A.837.837 0 0016.755 5C15.786 5 15 5.786 15 6.755V7zm0 2v2h10v-1a1 1 0 00-1-1h-9zm-2 0h-3a1 1 0 00-1 1v1h4V9zm-4 5h4v5h-3a1 1 0 01-1-1v-4zm16 0H15v5h9a1 1 0 001-1v-4z" fill="#111"/>
</svg>
