<svg width="34" height="24" viewBox="0 0 34 24" fill="none" xmlns="http://www.w3.org/2000/svg">
<rect width="34" height="24" fill="white"/>
<path d="M7.88406 3.00159H15.3628C15.5973 2.99131 15.8307 3.03864 16.0433 3.13954C16.2558 3.24045 16.4411 3.39194 16.5834 3.58111C16.7257 3.77027 16.8208 3.99151 16.8605 4.22595C16.9003 4.46039 16.8835 4.7011 16.8116 4.92755L13.3295 20.0798C13.1924 20.6097 12.8921 21.0815 12.4723 21.4266C12.0525 21.7717 11.5351 21.9721 10.9952 21.9987H3.51652C3.28284 22.0086 3.05024 21.9613 2.83843 21.8607C2.62662 21.7602 2.44183 21.6094 2.29969 21.4212C2.15755 21.2329 2.06225 21.0128 2.02187 20.7793C1.98148 20.5458 1.99719 20.3059 2.06768 20.0798L5.5673 4.92755C5.70327 4.39672 6.00312 3.92385 6.42307 3.57799C6.84301 3.23214 7.36106 3.03142 7.90156 3.00514" fill="#ED171F"/>
<path d="M14.7398 3.00146H23.3384C24.3883 3.00146 23.9123 3.86336 23.6674 4.92388L20.1852 20.0762C19.9438 21.1402 20.0207 21.995 18.9709 21.995H10.3723C10.1384 22.006 9.90535 21.9593 9.69314 21.859C9.48093 21.7588 9.29586 21.6078 9.15379 21.4192C9.01171 21.2306 8.91685 21.0099 8.87734 20.776C8.83783 20.5421 8.85485 20.302 8.92692 20.0762L12.4056 4.92742C12.5425 4.39713 12.8426 3.92488 13.2624 3.57919C13.6821 3.23351 14.1996 3.03238 14.7398 3.00501" fill="#082F67"/>
<path d="M22.9989 3.00154H30.4776C30.7124 2.99066 30.9462 3.03755 31.1593 3.1382C31.3723 3.23885 31.5581 3.39027 31.7008 3.57953C31.8435 3.76878 31.9389 3.99024 31.9788 4.22498C32.0187 4.45971 32.0019 4.70075 31.9299 4.9275L28.4303 20.0763C28.2935 20.607 27.9929 21.0795 27.5723 21.4247C27.1517 21.7699 26.6332 21.9698 26.0925 21.9951H18.6313C18.3976 22.005 18.1651 21.9577 17.9532 21.8571C17.7414 21.7566 17.5566 21.6058 17.4145 21.4176C17.2724 21.2293 17.1771 21.0092 17.1367 20.7757C17.0963 20.5422 17.112 20.3023 17.1825 20.0763L20.6646 4.9275C20.8006 4.39667 21.1004 3.9238 21.5204 3.57794C21.9403 3.23209 22.4584 3.03136 22.9989 3.00508" fill="#006A65"/>
<path fill-rule="evenodd" clip-rule="evenodd" d="M21.7496 17.2529H22.4495L22.6525 16.5649H21.9526L21.7496 17.2529ZM22.313 15.3554L22.0715 16.1676C22.2052 16.0983 22.3431 16.0378 22.4845 15.9867C22.6001 15.9608 22.7169 15.9407 22.8345 15.9264L23.0059 15.3554H22.313ZM22.663 14.1884L22.432 14.9688C22.5628 14.9073 22.6972 14.854 22.8345 14.8091C22.9497 14.7827 23.0666 14.7649 23.1844 14.7559L23.3524 14.1884H22.663ZM24.2238 14.1884L23.3139 17.2423H23.5589L23.3664 17.8772H23.1214L23.0654 18.0723H22.1975L22.257 17.8772H20.5072L20.6857 17.292H20.8642L21.7881 14.1884L21.9735 13.5606H22.831L22.7365 13.8763C22.8784 13.7768 23.0341 13.6991 23.1984 13.6458C23.4189 13.5855 24.7033 13.5642 24.7033 13.5642L24.5143 14.1884H24.2238Z" fill="white"/>
<path d="M24.6158 13.5642H25.5572V13.9189C25.5572 13.9792 25.5992 14.0076 25.7112 14.0076H25.9037L25.7252 14.5963H25.2178C24.7733 14.6283 24.6088 14.4367 24.6193 14.2204L24.6158 13.5642Z" fill="white"/>
<path d="M24.7383 16.359H23.8389L23.9929 15.8341H25.0217L25.1687 15.3553H24.1538L24.3288 14.7629H27.1565L26.978 15.3553H26.0296L25.8827 15.8341H26.8311L26.6736 16.359H25.6307L25.4487 16.5789H25.8687L25.9701 17.2387C25.9713 17.2865 25.9821 17.3335 26.0016 17.377C26.0704 17.4051 26.1446 17.4172 26.2186 17.4125H26.3481L26.1556 18.0544H25.8337H25.6097C25.527 18.0371 25.4485 18.0034 25.3787 17.9551C25.3356 17.9336 25.298 17.9022 25.2688 17.8634C25.2397 17.8246 25.2198 17.7795 25.2107 17.7317L25.1127 17.072L24.6438 17.721C24.5672 17.8364 24.4626 17.9296 24.3399 17.9918C24.2173 18.0539 24.0808 18.0829 23.9439 18.0757H23.2894L23.4609 17.5011H23.7129C23.7769 17.4985 23.8393 17.4802 23.8949 17.4479C23.9525 17.4249 24.0015 17.3839 24.0349 17.3309L24.7383 16.359Z" fill="white"/>
<path d="M14.8798 14.9225H17.2631L17.0881 15.5007H16.1327L15.9857 15.9901H16.9621L16.7836 16.586H15.8072L15.5728 17.3841C15.5448 17.4727 15.8037 17.4869 15.8982 17.4869L16.3847 17.416L16.1887 18.0757H15.0898C15.0059 18.074 14.9225 18.0621 14.8413 18.0402C14.7638 18.0137 14.698 17.9605 14.6551 17.8899C14.6123 17.8193 14.5952 17.7357 14.6069 17.6536L14.9218 16.5896H14.3794L14.5614 15.983H15.1038L15.2473 15.4936H14.7084L14.8798 14.9225Z" fill="white"/>
<path d="M16.4861 13.887H17.4625L17.284 14.49H15.9471L15.8036 14.6177C15.7406 14.678 15.7196 14.6531 15.6392 14.6957C15.5035 14.7698 15.3523 14.81 15.1982 14.8128H14.7817L14.9532 14.2311H15.0827C15.1577 14.2385 15.2333 14.2276 15.3032 14.1991C15.3646 14.1484 15.4136 14.0841 15.4467 14.0112L15.6916 13.5572H16.6645L16.4861 13.887Z" fill="white"/>
<path fill-rule="evenodd" clip-rule="evenodd" d="M18.362 14.8801C18.5697 14.7081 18.8183 14.5944 19.0829 14.5502C19.1879 14.5502 19.8388 14.5502 19.8388 14.5502L19.9368 14.2204H18.5614L18.362 14.8801ZM19.6498 15.1319H18.2815L18.1975 15.4086H19.3804C19.4397 15.4029 19.4995 15.4029 19.5588 15.4086L19.6498 15.1319ZM17.8825 13.5642H18.7154L18.5929 13.9898C18.7311 13.8772 18.8813 13.7808 19.0409 13.7025C19.2368 13.6426 19.4368 13.5975 19.6393 13.5678H20.9867L20.5282 15.1177C20.4809 15.3012 20.4053 15.476 20.3043 15.6356C20.2476 15.7241 20.1692 15.7962 20.0768 15.8449C19.9816 15.9023 19.8754 15.9386 19.7653 15.9513C19.6743 15.9513 19.5378 15.9513 19.3489 15.9513H18.0505L17.7005 17.1785C17.6655 17.2991 17.648 17.3558 17.669 17.3878C17.6831 17.4082 17.702 17.4248 17.724 17.436C17.746 17.4471 17.7704 17.4525 17.795 17.4516L18.3655 17.3948L18.173 18.0688H17.5291C17.3261 18.0688 17.1791 18.0688 17.0741 18.0688C16.9811 18.0766 16.8879 18.0582 16.8046 18.0155C16.7416 17.9623 16.6507 17.895 16.6542 17.8205C16.672 17.71 16.6978 17.6009 16.7311 17.4942L17.8825 13.5642Z" fill="white"/>
<path d="M20.3112 16.0684L20.2342 16.4231C20.2144 16.5302 20.1618 16.6283 20.0837 16.7033C20.024 16.7598 19.9534 16.8032 19.8763 16.8307C19.7992 16.8581 19.7173 16.8691 19.6358 16.8629L19.1773 16.8842V17.3027C19.1773 17.4233 19.2053 17.4127 19.2228 17.4304C19.2396 17.4487 19.2616 17.4612 19.2858 17.4659H19.4293L19.8703 17.4375L19.6813 18.0511H19.1773C18.9412 18.0781 18.7021 18.0515 18.4774 17.9731C18.3934 17.9199 18.3829 17.8525 18.3829 17.7354L18.4144 16.0932H19.2228V16.4266H19.4188C19.4665 16.4317 19.5147 16.4243 19.5588 16.4054C19.5856 16.3819 19.605 16.3511 19.6148 16.3167L19.6918 16.0578L20.3112 16.0684Z" fill="white"/>
<path d="M8.76948 7.83963C8.73798 7.97086 8.22003 10.4005 8.22003 10.4005C8.10804 10.8935 8.02755 11.2446 7.75108 11.4645C7.59582 11.5947 7.39958 11.6639 7.19814 11.6596C7.12769 11.6685 7.05617 11.6625 6.98816 11.6418C6.92014 11.6211 6.85713 11.5863 6.80313 11.5396C6.74912 11.4929 6.70532 11.4353 6.67452 11.3704C6.64371 11.3056 6.62657 11.235 6.6242 11.1631V11.0496L6.72919 10.3898C6.72919 10.3898 7.27513 8.17658 7.37312 7.88574V7.85382C6.95389 7.88917 6.53249 7.88917 6.11325 7.85382C6.11325 7.8751 6.07826 8.01342 6.07826 8.01342L5.52182 10.4962L5.47282 10.7091L5.38183 11.3972C5.37713 11.5761 5.41811 11.7533 5.50082 11.9115C5.75629 12.3619 6.47722 12.4293 6.90067 12.4293C7.37187 12.4445 7.83879 12.3344 8.25503 12.1101C8.48435 11.9533 8.67962 11.7507 8.82887 11.5146C8.97812 11.2786 9.07819 11.0141 9.12293 10.7374L9.18593 10.4891C9.18593 10.4891 9.74587 8.19077 9.84036 7.89283C9.83878 7.88225 9.83878 7.87149 9.84036 7.86091C9.48496 7.88485 9.12837 7.88485 8.77297 7.86091" fill="white"/>
<path d="M11.8736 12.4009C11.4957 12.4009 11.3627 12.4009 10.9252 12.4187L10.9077 12.3832C10.9462 12.2165 10.9882 12.0498 11.0232 11.876L11.0792 11.6455C11.1597 11.2908 11.2402 10.8616 11.2507 10.7375C11.2612 10.6133 11.2822 10.4679 11.0652 10.4679C10.966 10.4787 10.8697 10.5088 10.7817 10.5566C10.7292 10.7481 10.6207 11.2872 10.5718 11.5355C10.4633 12.0534 10.4563 12.1101 10.4073 12.3655L10.3758 12.4009C9.98732 12.4009 9.85434 12.4009 9.40638 12.4187L9.38538 12.3797C9.46237 12.0699 9.53586 11.7613 9.60585 11.4539C9.72883 10.9398 9.82116 10.4187 9.88233 9.8933L9.91733 9.86492C10.3548 9.80462 10.4598 9.79398 10.9287 9.69467L10.9707 9.74078L10.8972 10.0068C10.9777 9.95714 11.0512 9.90748 11.1352 9.86492C11.3248 9.77465 11.5312 9.72629 11.7406 9.72305C11.8484 9.71032 11.9573 9.73267 12.0517 9.78687C12.1461 9.84107 12.221 9.92431 12.2656 10.0245C12.3566 10.2373 12.2971 10.5034 12.1781 11.0283L12.1186 11.2943C11.9961 11.876 11.9786 11.9824 11.9086 12.3797L11.8736 12.4009Z" fill="white"/>
<path d="M13.3994 12.4011C13.1754 12.4011 13.0285 12.4011 12.885 12.4011C12.7415 12.4011 12.605 12.4011 12.395 12.4188V12.4011V12.3798C12.4281 12.2524 12.4678 12.1269 12.514 12.0038C12.5587 11.88 12.5949 11.7532 12.6225 11.6243C12.6855 11.3335 12.7275 11.1278 12.7555 10.9504C12.7835 10.7731 12.8045 10.6276 12.8255 10.4574H12.843L12.8605 10.4397L13.3749 10.3616C13.5254 10.3404 13.6724 10.312 13.9069 10.2659V10.2871V10.3084C13.8649 10.4893 13.8194 10.6631 13.7774 10.8547L13.6514 11.3973C13.5674 11.7804 13.5324 11.9258 13.5149 12.0287C13.4974 12.1315 13.4904 12.1776 13.4554 12.3834L13.4344 12.4011H13.3994Z" fill="white"/>
<path d="M15.7967 11.0459C15.7566 11.2652 15.6809 11.4761 15.5727 11.6702C15.5449 11.7221 15.5047 11.7662 15.4558 11.7984C15.4069 11.8307 15.3509 11.85 15.2927 11.8546C15.2612 11.8546 15.0757 11.8546 15.0722 11.5744C15.0775 11.4273 15.0974 11.2812 15.1317 11.1382C15.2332 10.6948 15.3487 10.3224 15.6462 10.3224C15.8807 10.3224 15.8982 10.599 15.7967 11.0318V11.0459ZM16.7801 11.0743C16.9095 10.4891 16.8081 10.2124 16.6786 10.0457C16.5629 9.92538 16.422 9.83294 16.2663 9.77523C16.1107 9.71752 15.9442 9.69602 15.7792 9.71232C15.3665 9.69588 14.9628 9.83773 14.6488 10.1096C14.3866 10.3807 14.211 10.7255 14.1448 11.0991C14.0644 11.4538 13.9699 12.1029 14.5578 12.3441C14.7533 12.4139 14.9595 12.4476 15.1667 12.4434C15.3884 12.4529 15.6096 12.4156 15.8162 12.3337C16.0229 12.2519 16.2105 12.1274 16.3671 11.9681C16.5698 11.7058 16.711 11.4001 16.7801 11.0743Z" fill="white"/>
<path d="M25.9806 12.4397C25.5257 12.4397 25.3962 12.4397 24.9762 12.4397L24.9482 12.4042C25.0637 11.968 25.1792 11.5317 25.2982 11.0883C25.3888 10.7086 25.4566 10.3236 25.5012 9.93559L25.5362 9.90722C25.9876 9.84337 26.1136 9.82564 26.5861 9.73697V9.77598C26.4986 10.1307 26.4146 10.4854 26.3306 10.8401C26.1591 11.5955 26.0961 11.9786 26.0296 12.3759L25.9806 12.4397Z" fill="white"/>
<path d="M25.2807 11.0955C25.2411 11.3137 25.1653 11.5236 25.0567 11.7162C24.968 11.8207 24.8423 11.8857 24.7067 11.8971C24.6752 11.8971 24.4933 11.8971 24.4863 11.6204C24.4911 11.4742 24.5122 11.3291 24.5493 11.1877C24.6473 10.7514 24.7627 10.379 25.0602 10.379C25.2982 10.379 25.4102 10.6521 25.2947 11.0884L25.2807 11.0955ZM26.1941 11.1345C26.3236 10.5493 25.7951 11.0813 25.7111 10.8898C25.5782 10.5883 25.6621 9.97822 25.1372 9.77604C24.9399 9.75167 24.7397 9.77496 24.553 9.844C24.3662 9.91304 24.1983 10.0259 24.0628 10.1733C23.8006 10.4411 23.6259 10.784 23.5624 11.1558C23.4784 11.5105 23.3874 12.156 23.9683 12.3866C24.1323 12.4595 24.3109 12.4923 24.4898 12.4823C25.0777 12.4504 25.5397 11.553 25.8546 11.1983C26.1101 10.9181 26.1556 11.3048 26.2046 11.1345" fill="white"/>
<path d="M19.3488 12.4009C18.9709 12.4009 18.8414 12.4009 18.4004 12.4186V12.3831C18.4389 12.2164 18.4809 12.0497 18.5194 11.8759L18.5719 11.6454C18.6559 11.2907 18.7329 10.8615 18.7434 10.7374C18.7539 10.6132 18.7749 10.4678 18.5614 10.4678C18.462 10.4776 18.3655 10.5078 18.2779 10.5565C18.2254 10.748 18.117 11.2871 18.0645 11.5354C17.9595 12.0533 17.949 12.11 17.9035 12.3654L17.8685 12.4009C17.4835 12.4009 17.3505 12.4009 16.9026 12.4186L16.8816 12.376C16.9551 12.0675 17.0286 11.7589 17.0986 11.4503C17.2227 10.9313 17.3173 10.4055 17.382 9.87547L17.417 9.8471C17.851 9.7868 17.956 9.77616 18.4284 9.67685L18.4634 9.72296L18.3969 9.98898C18.4739 9.93932 18.5509 9.88966 18.6314 9.8471C18.8211 9.75713 19.0274 9.70879 19.2368 9.70523C19.345 9.69282 19.4543 9.71527 19.5492 9.76939C19.644 9.82351 19.7196 9.90655 19.7653 10.0067C19.8528 10.2195 19.7933 10.4855 19.6743 11.0105L19.6148 11.2765C19.4923 11.8582 19.4748 11.9646 19.4083 12.3618L19.3488 12.4009Z" fill="white"/>
<path d="M22.607 7.83591H22.2955C21.4801 7.83591 21.1546 7.83591 21.0216 7.83591C21.0216 7.8962 20.9867 8.00261 20.9867 8.00261L20.6962 9.37525L19.9683 12.4185C20.6682 12.4185 20.9691 12.4185 21.0881 12.4185L21.2841 11.4679C21.2841 11.4679 21.4241 10.872 21.4346 10.8508C21.4577 10.8156 21.4874 10.7855 21.5221 10.7621H21.5851C22.1975 10.7621 22.8904 10.7621 23.4329 10.3577C23.8093 10.0663 24.0691 9.64686 24.1643 9.17663C24.1986 9.04222 24.2162 8.90402 24.2168 8.76519C24.2252 8.57707 24.1723 8.39137 24.0663 8.23671C23.7934 7.84655 23.2439 7.83945 22.607 7.83591ZM23.0129 9.25466C22.9829 9.39899 22.9219 9.53483 22.8342 9.65254C22.7465 9.77024 22.6342 9.86691 22.5055 9.93566C22.2769 10.0288 22.0303 10.0676 21.7846 10.0492H21.6166V9.98177C21.6166 9.98177 21.9246 8.61622 21.9246 8.61977V8.54883V8.49563H22.0505L22.7015 8.55238C22.8277 8.60726 22.9279 8.70978 22.9808 8.83822C23.0337 8.96666 23.0352 9.11093 22.9849 9.24048" fill="white"/>
<path d="M29.6903 9.74761L29.6553 9.70505C29.1899 9.80081 29.1059 9.815 28.679 9.8753L28.6475 9.90367C28.6458 9.91067 28.6458 9.91796 28.6475 9.92495C28.329 10.6698 28.3395 10.5102 28.0805 11.0954C28.0823 11.0706 28.0823 11.0457 28.0805 11.0209L28.0175 9.7547L27.9755 9.71214C27.4926 9.80791 27.4786 9.82209 27.0306 9.88239L26.9921 9.91077C26.9921 9.9285 26.9921 9.94623 26.9921 9.96397C27.0385 10.1889 27.0724 10.4162 27.0936 10.645C27.1181 10.872 27.1531 11.099 27.1776 11.3224C27.2231 11.6771 27.2476 11.8757 27.3001 12.4432C26.9991 12.954 26.9256 13.1526 26.6387 13.5924V13.6314C27.0796 13.6314 27.1811 13.6314 27.5031 13.6314L27.5766 13.5499C27.8215 13.0143 29.6763 9.76534 29.6763 9.76534" fill="white"/>
<path d="M13.8125 10.0635C14.0609 9.88612 14.0924 9.64493 13.8824 9.51724C13.7476 9.45895 13.6004 9.43649 13.4546 9.45201C13.3089 9.46753 13.1694 9.5205 13.0495 9.60591C12.7976 9.77971 12.7696 10.0244 12.9795 10.1486C13.1141 10.2074 13.2611 10.2304 13.4069 10.2155C13.5526 10.2006 13.6922 10.1483 13.8125 10.0635Z" fill="white"/>
<path d="M27.5414 13.5784L27.1915 14.2133C27.1283 14.3362 27.031 14.4376 26.9115 14.505C26.7921 14.5725 26.6559 14.603 26.5195 14.5928H25.9386L26.1066 14.0218H26.2221C26.2686 14.0255 26.3153 14.0182 26.3585 14.0005C26.3893 13.988 26.4152 13.9656 26.432 13.9367L26.6455 13.582L27.5414 13.5784Z" fill="white"/>
</svg>
